<?xml version="1.0" encoding="UTF-8" standalone="no"?>
<!DOCTYPE svg PUBLIC "-//W3C//DTD SVG 1.1//EN"
 "http://www.w3.org/Graphics/SVG/1.1/DTD/svg11.dtd">
<!-- Generated by graphviz version 2.47.0 (20210316.0004)
 -->
<!-- Title: dependencies Pages: 1 -->
<svg width="881pt" height="284pt"
 viewBox="0.00 0.00 881.00 284.00" xmlns="http://www.w3.org/2000/svg" xmlns:xlink="http://www.w3.org/1999/xlink">
<g id="graph0" class="graph" transform="scale(1 1) rotate(0) translate(4 280)">
<title>dependencies</title>
<polygon fill="white" stroke="transparent" points="-4,4 -4,-280 877,-280 877,4 -4,4"/>
<text text-anchor="start" x="415.51" y="-42.4" font-family="Times-12" font-weight="bold" font-size="14.00">Legend</text>
<polygon fill="#ffffb3" stroke="transparent" points="202.5,-10 202.5,-30 222.5,-30 222.5,-10 202.5,-10"/>
<text text-anchor="start" x="226.13" y="-15.4" font-family="Times-12" font-size="14.00"> &#160;Declarations</text>
<polygon fill="#8dd3c7" stroke="transparent" points="315.5,-10 315.5,-30 335.5,-30 335.5,-10 315.5,-10"/>
<text text-anchor="start" x="339.23" y="-15.4" font-family="Times-12" font-size="14.00"> &#160;Module</text>
<polygon fill="#80b1d3" stroke="transparent" points="401.5,-10 401.5,-30 421.5,-30 421.5,-10 401.5,-10"/>
<text text-anchor="start" x="425.28" y="-15.4" font-family="Times-12" font-size="14.00"> &#160;Bootstrap</text>
<polygon fill="#fdb462" stroke="transparent" points="498.5,-10 498.5,-30 518.5,-30 518.5,-10 498.5,-10"/>
<text text-anchor="start" x="522.17" y="-15.4" font-family="Times-12" font-size="14.00"> &#160;Providers</text>
<polygon fill="#fb8072" stroke="transparent" points="594.5,-10 594.5,-30 614.5,-30 614.5,-10 594.5,-10"/>
<text text-anchor="start" x="618.23" y="-15.4" font-family="Times-12" font-size="14.00"> &#160;Exports</text>
<g id="clust1" class="cluster">
<title>cluster_AppModule</title>
<polygon fill="none" stroke="black" stroke-dasharray="1,5" points="8,-70 8,-268 865,-268 865,-70 8,-70"/>
</g>
<g id="clust2" class="cluster">
<title>cluster_AppModule_declarations</title>
<polygon fill="none" stroke="black" points="168,-78 168,-130 857,-130 857,-78 168,-78"/>
</g>
<g id="clust8" class="cluster">
<title>cluster_AppModule_imports</title>
<polygon fill="none" stroke="black" points="16,-78 16,-130 160,-130 160,-78 16,-78"/>
</g>
<g id="clust10" class="cluster">
<title>cluster_AppModule_bootstrap</title>
<polygon fill="none" stroke="black" points="374,-208 374,-260 498,-260 498,-208 374,-208"/>
</g>
<!-- AppComponent -->
<g id="node1" class="node">
<title>AppComponent</title>
<polygon fill="#ffffb3" stroke="black" points="848.94,-122 743.06,-122 743.06,-86 848.94,-86 848.94,-122"/>
<text text-anchor="middle" x="796" y="-99.8" font-family="Times,serif" font-size="14.00">AppComponent</text>
</g>
<!-- AppModule -->
<g id="node6" class="node">
<title>AppModule</title>
<polygon fill="#8dd3c7" stroke="black" points="477.66,-187 474.66,-191 453.66,-191 450.66,-187 394.34,-187 394.34,-151 477.66,-151 477.66,-187"/>
<text text-anchor="middle" x="436" y="-164.8" font-family="Times,serif" font-size="14.00">AppModule</text>
</g>
<!-- AppComponent&#45;&gt;AppModule -->
<g id="edge1" class="edge">
<title>AppComponent&#45;&gt;AppModule</title>
<path fill="none" stroke="black" d="M796,-122.28C796,-143.32 796,-175 796,-175 796,-175 488,-175 488,-175"/>
<polygon fill="black" stroke="black" points="488,-171.5 478,-175 488,-178.5 488,-171.5"/>
</g>
<!-- FareDisplayComponent -->
<g id="node2" class="node">
<title>FareDisplayComponent</title>
<polygon fill="#ffffb3" stroke="black" points="724.75,-122 575.25,-122 575.25,-86 724.75,-86 724.75,-122"/>
<text text-anchor="middle" x="650" y="-99.8" font-family="Times,serif" font-size="14.00">FareDisplayComponent</text>
</g>
<!-- FareDisplayComponent&#45;&gt;AppModule -->
<g id="edge2" class="edge">
<title>FareDisplayComponent&#45;&gt;AppModule</title>
<path fill="none" stroke="black" d="M650,-122.02C650,-139.37 650,-163 650,-163 650,-163 487.77,-163 487.77,-163"/>
<polygon fill="black" stroke="black" points="487.77,-159.5 477.77,-163 487.77,-166.5 487.77,-159.5"/>
</g>
<!-- FormComponent -->
<g id="node3" class="node">
<title>FormComponent</title>
<polygon fill="#ffffb3" stroke="black" points="556.67,-122 445.33,-122 445.33,-86 556.67,-86 556.67,-122"/>
<text text-anchor="middle" x="501" y="-99.8" font-family="Times,serif" font-size="14.00">FormComponent</text>
</g>
<!-- FormComponent&#45;&gt;AppModule -->
<g id="edge3" class="edge">
<title>FormComponent&#45;&gt;AppModule</title>
<path fill="none" stroke="black" d="M461.5,-122.11C461.5,-122.11 461.5,-140.99 461.5,-140.99"/>
<polygon fill="black" stroke="black" points="458,-140.99 461.5,-150.99 465,-140.99 458,-140.99"/>
</g>
<!-- MainComponent -->
<g id="node4" class="node">
<title>MainComponent</title>
<polygon fill="#ffffb3" stroke="black" points="427.38,-122 316.62,-122 316.62,-86 427.38,-86 427.38,-122"/>
<text text-anchor="middle" x="372" y="-99.8" font-family="Times,serif" font-size="14.00">MainComponent</text>
</g>
<!-- MainComponent&#45;&gt;AppModule -->
<g id="edge4" class="edge">
<title>MainComponent&#45;&gt;AppModule</title>
<path fill="none" stroke="black" d="M410.81,-122.11C410.81,-122.11 410.81,-140.99 410.81,-140.99"/>
<polygon fill="black" stroke="black" points="407.31,-140.99 410.81,-150.99 414.31,-140.99 407.31,-140.99"/>
</g>
<!-- NavbarComponent -->
<g id="node5" class="node">
<title>NavbarComponent</title>
<polygon fill="#ffffb3" stroke="black" points="298.03,-122 175.97,-122 175.97,-86 298.03,-86 298.03,-122"/>
<text text-anchor="middle" x="237" y="-99.8" font-family="Times,serif" font-size="14.00">NavbarComponent</text>
</g>
<!-- NavbarComponent&#45;&gt;AppModule -->
<g id="edge5" class="edge">
<title>NavbarComponent&#45;&gt;AppModule</title>
<path fill="none" stroke="black" d="M237,-122.02C237,-139.37 237,-163 237,-163 237,-163 384.28,-163 384.28,-163"/>
<polygon fill="black" stroke="black" points="384.28,-166.5 394.28,-163 384.28,-159.5 384.28,-166.5"/>
</g>
<!-- AppComponent  -->
<g id="node8" class="node">
<title>AppComponent </title>
<polygon fill="#80b1d3" stroke="black" points="490.44,-252 381.56,-252 381.56,-216 490.44,-216 490.44,-252"/>
<text text-anchor="middle" x="436" y="-229.8" font-family="Times,serif" font-size="14.00">AppComponent </text>
</g>
<!-- AppModule&#45;&gt;AppComponent  -->
<g id="edge7" class="edge">
<title>AppModule&#45;&gt;AppComponent </title>
<path fill="none" stroke="black" stroke-dasharray="1,5" d="M436,-187.11C436,-187.11 436,-205.99 436,-205.99"/>
<polygon fill="black" stroke="black" points="432.5,-205.99 436,-215.99 439.5,-205.99 432.5,-205.99"/>
</g>
<!-- AppRoutingModule -->
<g id="node7" class="node">
<title>AppRoutingModule</title>
<polygon fill="#8dd3c7" stroke="black" points="152.27,-122 149.27,-126 128.27,-126 125.27,-122 23.73,-122 23.73,-86 152.27,-86 152.27,-122"/>
<text text-anchor="middle" x="88" y="-99.8" font-family="Times,serif" font-size="14.00">AppRoutingModule</text>
</g>
<!-- AppRoutingModule&#45;&gt;AppModule -->
<g id="edge6" class="edge">
<title>AppRoutingModule&#45;&gt;AppModule</title>
<path fill="none" stroke="black" d="M88,-122.28C88,-143.32 88,-175 88,-175 88,-175 384.02,-175 384.02,-175"/>
<polygon fill="black" stroke="black" points="384.02,-178.5 394.02,-175 384.02,-171.5 384.02,-178.5"/>
</g>
</g>
</svg>
